# xmcd
#
# Track frame offsets:
#       150
#       21582
#       40301
#       57552
#       77724
#       98284
#       114738
#       137030
#       160780
#       176083
#       203637
#       218026
#       239496
#       256026
#       277868
#       293850
#       316261
#
# Disc length: 4561 seconds
#
# Revision: 3
# Processed by: cddbd v1.5.2PL0 Copyright (c) Steve Scherf et al.
# Submitted via: FreeDbEdit v0.1
#
DISCID=ee11cf11
DTITLE=The Notorious B.I.G. - Greatest Hits (Edited)
DYEAR=2007
DGENRE=Hip-Hop
TTITLE0=Juicy
TTITLE1=Big Poppa
TTITLE2=Hypnotize (Edited)
TTITLE3=One More Chance/Stay With Me
TTITLE4=Get Money (featuring Junior M.A.F.I.A.)
TTITLE5=Warning
TTITLE6=Dead Wrong (featuring Eminem)
TTITLE7=Who Shot Ya
TTITLE8=Ten Crack Commandments
TTITLE9=Notorious Thugs (featuring Bone Thugs and Harmony)
TTITLE10=Notorious B.I.G. (featuring Lil Kim and Puff Daddy)
TTITLE11=Nasty Girl (featuring Diddy, Nelly, Jagged Edge, Avery Storm)
TTITLE12=Unbelievable
TTITLE13=N...as Bleed
TTITLE14=Running Your Mouth (featuring Snoop Dogg, Nate Dogg, Fabulous, B
TTITLE14=usta Rhymes)
TTITLE15=Want That Old Thing Back (featuring Ja Rule and Ralph Tresvant)
TTITLE16=F.... You Tonight (featuring R. Kelly)
EXTD=
EXTT0=
EXTT1=
EXTT2=
EXTT3=
EXTT4=
EXTT5=
EXTT6=
EXTT7=
EXTT8=
EXTT9=
EXTT10=
EXTT11=
EXTT12=
EXTT13=
EXTT14=
EXTT15=
EXTT16=
PLAYORDER=
